<?xml version="1.0" encoding="iso-8859-1"?>
<!-- Generator: Adobe Illustrator 17.1.0, SVG Export Plug-In . SVG Version: 6.00 Build 0)  -->
<!DOCTYPE svg PUBLIC "-//W3C//DTD SVG 1.1//EN" "http://www.w3.org/Graphics/SVG/1.1/DTD/svg11.dtd">
<svg version="1.1" id="Capa_1" xmlns="http://www.w3.org/2000/svg" xmlns:xlink="http://www.w3.org/1999/xlink" x="0px" y="0px"
	 viewBox="0 0 448.738 448.738" style="enable-background:new 0 0 448.738 448.738;" xml:space="preserve">
<path d="M425.159,286.459c-14.289-15.476-35.075-26.702-61.781-33.367c-70.771-17.662-155.136-55.05-155.136-132.865V50.669
	c0.002-0.11,0.002-0.22,0-0.331v-11.47c0-5.523-4.477-10-10-10c-5.522,0-10,4.477-10,10v3.024L43.37,63.849
	c-4.889,0.741-8.502,4.943-8.502,9.887v278.021c0,5.523,4.478,10,10,10h54.483v38.112H10c-5.523,0-10,4.477-10,10
	c0,5.523,4.477,10,10,10h344.017c34.16,0,62.52-25.28,67.373-58.112h17.349c5.523,0,10-4.477,10-10
	C448.738,325.373,440.806,303.403,425.159,286.459z M54.868,313.904h109.105v27.853H54.868V313.904z M119.352,361.757h54.622
	c5.522,0,10-4.477,10-10v-30.479l67.358,39.126c1.525,0.886,3.258,1.353,5.022,1.353h45.954v38.112H119.352V361.757z
	 M354.017,399.869h-31.708v-38.112h78.769C396.461,383.502,377.117,399.869,354.017,399.869z M259.048,341.757l-80.052-46.5
	c-0.027-0.016-0.057-0.026-0.084-0.042c-0.694-0.395-1.439-0.707-2.223-0.928c-0.094-0.026-0.188-0.049-0.283-0.072
	c-0.301-0.075-0.607-0.137-0.919-0.184c-0.103-0.016-0.205-0.035-0.308-0.047c-0.396-0.048-0.797-0.079-1.206-0.079H54.868V82.335
	l133.374-20.213v32.37h-38.814c-5.523,0-10,4.477-10,10c0,5.523,4.477,10,10,10h38.814v5.735c0,7.099,0.587,14.019,1.748,20.755
	h-28.94c-5.523,0-10,4.477-10,10c0,5.523,4.477,10,10,10h34.294c3.33,9.05,7.818,17.715,13.475,25.973l-36.289,0.518
	c-5.522,0.079-9.936,4.62-9.856,10.142c0.078,5.474,4.54,9.858,9.996,9.858c0.049,0,0.097-0.001,0.145-0.001l52.545-0.75
	c3.29,3.285,6.788,6.494,10.511,9.619c28.732,24.121,70.003,43.015,122.664,56.158c43.327,10.813,66.232,33.52,69.73,69.26H259.048z
	"/>
<g>
</g>
<g>
</g>
<g>
</g>
<g>
</g>
<g>
</g>
<g>
</g>
<g>
</g>
<g>
</g>
<g>
</g>
<g>
</g>
<g>
</g>
<g>
</g>
<g>
</g>
<g>
</g>
<g>
</g>
</svg>
